<svg width="220" height="280" viewBox="0 0 220 280" xmlns="http://www.w3.org/2000/svg">
  <defs>
    <linearGradient id="bodyForest" x1="0%" y1="0%" x2="100%" y2="0%">
      <stop offset="0%" stop-color="#6FA687"/>
      <stop offset="35%" stop-color="#3B7A57"/>
      <stop offset="75%" stop-color="#215A3C"/>
      <stop offset="100%" stop-color="#153F29"/>
    </linearGradient>
    <linearGradient id="capForest" x1="0%" y1="0%" x2="0%" y2="100%">
      <stop offset="0%" stop-color="#7BB393"/>
      <stop offset="100%" stop-color="#1E4A30"/>
    </linearGradient>
    <radialGradient id="shadowForest" cx="50%" cy="50%" r="50%">
      <stop offset="0%" stop-color="#0E3A4C" stop-opacity="0.24"/>
      <stop offset="100%" stop-color="#0E3A4C" stop-opacity="0"/>
    </radialGradient>
    <radialGradient id="ledGlowF" cx="50%" cy="50%" r="50%">
      <stop offset="0%" stop-color="#7FE8F7" stop-opacity="0.9"/>
      <stop offset="100%" stop-color="#7FE8F7" stop-opacity="0"/>
    </radialGradient>
  </defs>

  <rect x="0" y="0" width="220" height="280" rx="16" fill="#F5FBFC"/>
  <ellipse cx="110" cy="248" rx="58" ry="12" fill="url(#shadowForest)"/>

  <path d="M 88,22 C 88,14 94,8 110,8 C 126,8 132,14 132,22 L 132,40 L 88,40 Z" fill="url(#capForest)"/>
  <rect x="94" y="36" width="32" height="10" rx="3" fill="#0E2E1B" opacity="0.35"/>

  <path d="M 110,40
           C 96,40 90,50 90,60
           L 90,72
           C 66,82 58,102 58,128
           L 58,214
           C 58,236 78,250 110,250
           C 142,250 162,236 162,214
           L 162,128
           C 162,102 154,82 130,72
           L 130,60
           C 130,50 124,40 110,40 Z"
        fill="url(#bodyForest)"/>

  <path d="M 74,100 C 70,120 70,190 74,220" fill="none" stroke="#FFFFFF" stroke-width="7" stroke-linecap="round" opacity="0.25"/>

  <circle cx="110" cy="118" r="20" fill="url(#ledGlowF)"/>
  <circle cx="110" cy="118" r="9" fill="#123420"/>
  <circle cx="110" cy="118" r="4" fill="#5FD3E8"/>
</svg>
